<svg xmlns="http://www.w3.org/2000/svg" width="32" height="31" viewBox="0 0 32 31"><g><g><path fill="#95e1d3" d="M30.74 9.502a15.72 15.72 0 0 0-8.243-8.242c1-.787 2.258-1.26 3.629-1.26A5.874 5.874 0 0 1 32 5.874c0 1.37-.473 2.629-1.26 3.628zM30.5 16c0 3.853-1.512 7.344-3.963 9.94l2.029 2.028a1.483 1.483 0 1 1-2.097 2.098l-2.18-2.179A14.42 14.42 0 0 1 16 30.5a14.42 14.42 0 0 1-8.275-2.604L5.56 30.06a1.5 1.5 0 1 1-2.121-2.121l2.011-2.012C3.008 23.33 1.5 19.845 1.5 15.999 1.5 7.991 7.992 1.5 16 1.5S30.5 7.991 30.5 16zM16 4.5c-6.351 0-11.5 5.149-11.5 11.5 0 6.352 5.149 11.5 11.5 11.5S27.5 22.352 27.5 16C27.5 9.648 22.35 4.5 16 4.5zm6 13h-6a1.5 1.5 0 0 1-1.5-1.5V8a1.5 1.5 0 0 1 3 0v6.5H22a1.5 1.5 0 0 1 0 3zM1.287 9.705A5.969 5.969 0 0 1 0 6a6 6 0 0 1 6-6c1.4 0 2.685.484 3.706 1.288a16.053 16.053 0 0 0-8.419 8.418z"/></g></g></svg>