<svg xmlns="http://www.w3.org/2000/svg" width="32" height="32" viewBox="0 0 32 32"><g><g><path fill="#95e1d3" d="M31.064 25.889l-14.47 5.988a1.499 1.499 0 0 1-1.188 0L.936 25.89A1.5 1.5 0 0 1 0 24.499v-23A1.5 1.5 0 0 1 2.073.113l.003.002a.089.089 0 0 1 .013.005L16 5.876 29.912.12a.085.085 0 0 1 .013-.005l.002-.002A1.5 1.5 0 0 1 32 1.5v23a1.5 1.5 0 0 1-.935 1.39zM14.5 8.503L3 3.743v19.753l11.5 4.76zM29 3.743l-11.5 4.76v19.752L29 23.496zm-9.12 6.89l5.5-2.5a1.5 1.5 0 0 1 1.241 2.731l-5.5 2.501a1.5 1.5 0 0 1-1.241-2.731zm0 5.501l5.5-2.5a1.5 1.5 0 0 1 1.241 2.73l-5.5 2.501a1.5 1.5 0 0 1-1.241-2.73zm0 5.5l5.5-2.5a1.5 1.5 0 0 1 1.241 2.73l-5.5 2.5a1.5 1.5 0 0 1-1.241-2.73zM6 7.999c.221 0 .431.048.62.135l5.5 2.5a1.5 1.5 0 1 1-1.24 2.731l-5.5-2.5A1.5 1.5 0 0 1 6 8zm0 5.5c.221 0 .431.048.62.135l5.5 2.5a1.5 1.5 0 1 1-1.24 2.73v.001l-5.5-2.5A1.5 1.5 0 0 1 6 13.499zM6 19c.221 0 .431.048.62.135l5.5 2.5a1.5 1.5 0 1 1-1.24 2.73l-5.5-2.5A1.5 1.5 0 0 1 6 19z"/></g></g></svg>