<svg xmlns="http://www.w3.org/2000/svg" width="16" height="16" viewBox="0 0 16 16"><g><g><path fill="#95e1d3" d="M16 8.014a8.027 8.027 0 0 1-.629 3.115 7.989 7.989 0 0 1-1.714 2.543 8.073 8.073 0 0 1-2.543 1.714 7.982 7.982 0 0 1-3.114.63A7.996 7.996 0 0 1 .162 6.403 7.996 7.996 0 0 1 8 .014a8.018 8.018 0 0 1 3.114.63 7.953 7.953 0 0 1 2.543 1.714 8.007 8.007 0 0 1 2.18 4.046c.109.526.163 1.069.163 1.61zm-2.723-4.34c-.013.019-1.109 1.603-3.807 2.705a21.162 21.162 0 0 1 .601 1.343c2.348-.295 4.66.203 4.76.225a6.803 6.803 0 0 0-1.554-4.273zM8 1.182c-.555 0-1.094.068-1.61.193.103.135 1.386 1.84 2.554 3.986 2.579-.966 3.552-2.448 3.569-2.474A6.802 6.802 0 0 0 8 1.182zm-1.658.204c.013-.002.02-.005.02-.005h.002l-.022.005zm-5.028 5.22c.18.003 3.027.038 6.308-.834a41.122 41.122 0 0 0-2.537-3.937 6.843 6.843 0 0 0-3.771 4.77zm1.604 5.975l-.002-.004s1.87-3.318 5.557-4.51c.09-.028.179-.056.269-.081a22.36 22.36 0 0 0-.554-1.16c-3.518 1.052-6.894.975-7.015.972-.002.072-.005.143-.005.216a6.81 6.81 0 0 0 1.75 4.567zm7.75 1.725c-.102-.598-.499-2.69-1.46-5.188l-.045.015C5.11 10.544 3.8 13.4 3.8 13.4s-.063-.047-.153-.12A6.804 6.804 0 0 0 8 14.847c.946 0 1.848-.193 2.668-.541zm4.078-5.207c-.141-.046-2.052-.65-4.258-.298.896 2.463 1.26 4.467 1.33 4.88A6.835 6.835 0 0 0 14.746 9.1z"/></g></g></svg>