<svg xmlns="http://www.w3.org/2000/svg" width="16" height="14" viewBox="0 0 16 14"><g><g><path fill="#95e1d3" d="M13.5 3.716v2.44h-1v-2.44H10V2.72h2.5V.279h1v2.44H16v.997zm-6.915-2.47c.888.49 1.408 1.288 1.408 2.33 0 .877-.541 1.567-1.24 2.103-.68.522-.81.741-.81 1.185 0 .379.73 1.024 1.112 1.29 1.114.774 1.444 1.492 1.444 2.692 0 1.498-1.444 3.17-4.116 3.17C2.04 14.015 0 12.895 0 11.397 0 9.878 1.866 8.41 4.21 8.41c.255 0 .489-.01.73-.01-.32-.307-.573-.688-.573-1.152 0-.274.089-.55.214-.785-.128.01-.258-.012-.392-.012-1.924 0-3.214-1.39-3.214-3.057 0-1.63 1.78-3.132 3.673-3.132h4.22l-.945.983zm-1.93 7.553c-1.619-.017-3.07.97-3.07 2.155 0 1.21 1.17 2.094 2.79 2.094 2.276 0 3.07-.822 3.07-2.032 0-.146-.018-.289-.052-.428-.178-.684-.808-1.023-1.688-1.623a3.595 3.595 0 0 0-1.05-.166zm1.82-5.204C6.288 2.193 5.208 1.068 4.12 1.037c-1.087-.032-1.816 1.04-1.628 2.443.188 1.402 1.22 2.565 2.308 2.597 1.087.031 1.863-1.079 1.676-2.482z"/></g></g></svg>