<svg xmlns="http://www.w3.org/2000/svg" width="32" height="31" viewBox="0 0 32 31"><g><g><path fill="#95e1d3" d="M32 16.5a1.5 1.5 0 0 1-1.5 1.5 1.49 1.49 0 0 1-1.02-.406l-.004.004-13.438-13.44L16 4.122 2.554 17.567a1.5 1.5 0 1 1-2.092-2.149L14.918.958c.273-.283.656-.46 1.08-.46H16c.027 0 .053 0 .08.002h.012l.068.007h.004c.367.04.694.213.933.469V.976L23 6.878V5.5a1.5 1.5 0 1 1 3 0v4.378l5.598 5.598-.004.003c.25.268.406.625.406 1.02zM29 19v10.5a1.5 1.5 0 0 1-1.5 1.5h-3V19h-6v12h-14A1.5 1.5 0 0 1 3 29.5V19L16 6zm-15.5 0h-6v6h6z"/></g></g></svg>