<svg xmlns="http://www.w3.org/2000/svg" width="16" height="16" viewBox="0 0 16 16"><g><g><path fill="#95e1d3" d="M14 16.014H2a2 2 0 0 1-2-2v-12a2 2 0 0 1 2-2h12a2 2 0 0 1 2 2v12a2 2 0 0 1-2 2zm-6-11.1c-1.247 0-2.32.74-2.811 1.8h-.003l-.014.035c-.03.065-.055.133-.08.2-.012.033-.025.064-.036.098-.023.07-.042.14-.06.212-.008.034-.018.066-.025.1a3.12 3.12 0 0 0-.038.23c-.005.032-.011.062-.015.094a3.1 3.1 0 1 0 6.163 0c-.003-.032-.01-.062-.014-.094a3.185 3.185 0 0 0-.038-.23c-.007-.034-.017-.066-.026-.1a3.183 3.183 0 0 0-.06-.212c-.01-.034-.023-.065-.035-.097a2.895 2.895 0 0 0-.08-.201l-.014-.034h-.003A3.098 3.098 0 0 0 8 4.915zm6.2-2.3a.8.8 0 0 0-.8-.8h-1.6a.8.8 0 0 0-.8.8v1.6a.8.8 0 0 0 .8.8h1.6a.8.8 0 0 0 .8-.8zm0 4.1h-1.475A4.904 4.904 0 0 1 8 12.915a4.9 4.9 0 0 1-4.725-6.2H1.8v6.7a.8.8 0 0 0 .8.8h10.8a.8.8 0 0 0 .8-.8z"/></g></g></svg>