<svg xmlns="http://www.w3.org/2000/svg" width="13" height="16" viewBox="0 0 13 16"><g><g><path fill="#95e1d3" d="M5.844 10.424c-.13.52-.262 1.066-.398 1.6-.135.526-.253 1.06-.449 1.543-.324.8-.736 1.575-1.277 2.2-.36.418-.283.251-.391.23-.083-.018-.09-.099-.106-.216-.088-.637-.028-1.372.005-2.087.037-.815.208-1.493.367-2.17.303-1.29.592-2.554.897-3.852.02-.087.075-.23.057-.278A4.016 4.016 0 0 1 4.28 6.33a3.38 3.38 0 0 1 .087-1.215c.172-.66.57-1.247 1.183-1.46.39-.136.822-.075 1.084.082.27.16.456.416.542.778.093.385.025.844-.05 1.182-.166.761-.386 1.334-.585 2.068-.099.365-.21.74-.118 1.133.085.361.273.61.53.797.265.193.58.3 1.015.285.767-.027 1.3-.518 1.657-.98.57-.741.915-1.74 1.046-2.93.043-.382.074-.823.044-1.259-.054-.802-.306-1.447-.704-1.947a3.295 3.295 0 0 0-1.57-1.07c-.648-.211-1.545-.281-2.342-.145-1.448.248-2.47 1.072-3.072 2.208a4.426 4.426 0 0 0-.523 2.131c0 .657.162 1.166.424 1.562.083.126.205.23.286.374.116.203-.018.507-.075.727-.068.266-.076.633-.386.639-.128.002-.29-.092-.399-.152-.815-.45-1.31-1.27-1.513-2.334a5.587 5.587 0 0 1 0-2.024A5.769 5.769 0 0 1 3.589.942 6.525 6.525 0 0 1 6.031.1C6.35.054 6.678.035 7.034.018a6.026 6.026 0 0 1 2.704.507 5.523 5.523 0 0 1 1.863 1.34 5.082 5.082 0 0 1 1.146 2.069c.126.432.249.895.249 1.429 0 .536-.114 1.008-.193 1.48-.296 1.768-1.137 3.213-2.398 4.036-.306.2-.677.383-1.097.506-.417.121-.892.213-1.402.177a2.878 2.878 0 0 1-1.24-.36c-.337-.191-.62-.425-.822-.778z"/></g></g></svg>