<svg xmlns="http://www.w3.org/2000/svg" width="10" height="16" viewBox="0 0 10 16"><g><g><path fill="#95e1d3" d="M10.009 15.145c-.68.32-1.297.547-1.849.678a7.79 7.79 0 0 1-1.79.195 4.865 4.865 0 0 1-1.717-.277 4.165 4.165 0 0 1-1.43-.79c-.397-.343-.67-.708-.824-1.092-.152-.385-.228-.943-.228-1.676V6.568H.007V4.302c.626-.204 1.351-.497 1.796-.879.448-.382.805-.84 1.075-1.376.27-.533.457-1.213.558-2.04H5.7v3.705h3.682v2.856H5.701v4.105c0 .93-.012 1.465.086 1.727.097.262.341.534.607.691.353.213.755.32 1.209.32.806 0 1.608-.265 2.406-.791z"/></g></g></svg>