<svg xmlns="http://www.w3.org/2000/svg" width="16" height="14" viewBox="0 0 16 14"><g><g><path fill="#95e1d3" d="M10.883.515c1.271-.022 1.948.441 2.594 1.03.55-.047 1.262-.354 1.682-.567l.409-.223c-.24.648-.566 1.156-1.066 1.54-.11.086-.22.202-.36.256v.008c.712-.007 1.3-.328 1.858-.503v.008c-.293.466-.69.939-1.113 1.278-.17.136-.342.27-.513.407.01.754-.01 1.474-.152 2.107-.82 3.685-2.992 6.186-6.43 7.257-1.235.385-3.23.544-4.645.192a11.973 11.973 0 0 1-1.93-.63c-.33-.145-.636-.3-.929-.48A49.135 49.135 0 0 1 0 12.02c.319.01.692.098 1.05.04.322-.052.638-.038.936-.103.742-.163 1.402-.379 1.97-.712.275-.16.693-.35.889-.582a2.797 2.797 0 0 1-.977-.175c-1.062-.375-1.68-1.065-2.082-2.1.322.035 1.248.119 1.465-.064-.405-.023-.794-.257-1.073-.432-.854-.533-1.55-1.43-1.545-2.81l.336.16c.214.09.433.139.689.192.108.022.324.086.448.039H2.09c-.165-.192-.434-.32-.6-.526C.94 4.265.427 3.217.752 1.968c.082-.316.213-.596.352-.854l.016.008c.064.133.206.232.296.343.28.347.626.66.977.934 1.2.938 2.279 1.514 4.012 1.941.44.108.949.19 1.474.191-.148-.43-.1-1.125.016-1.54.292-1.047.927-1.8 1.858-2.204.222-.097.47-.167.728-.223l.4-.049z"/></g></g></svg>