<svg xmlns="http://www.w3.org/2000/svg" width="20" height="12" viewBox="0 0 20 12"><g><g><path fill="#95e1d3" d="M19.71 5.776l-.002.024-.001.012-.002.017-.003.022v.002a.751.751 0 0 1-.203.41c-.204.247-.427.479-.651.706-1.211 1.23-2.601 2.327-4.123 3.123-.973.509-2.012.918-3.09 1.116a8.978 8.978 0 0 1-3.55-.05c-2.04-.444-3.887-1.546-5.503-2.863-.75-.611-1.488-1.28-2.108-2.033-.272-.329-.272-.719 0-1.048.203-.247.426-.48.65-.707 1.212-1.23 2.602-2.326 4.124-3.122C6.22.876 7.258.465 8.337.268a8.978 8.978 0 0 1 3.55.051c2.04.443 3.887 1.545 5.503 2.863.75.61 1.488 1.28 2.108 2.032a.753.753 0 0 1 .204.412l.002.02.003.018v.013l.002.025.002.036-.001.038zM9.99 1.942a3.645 3.645 0 1 0 0 7.29 3.645 3.645 0 0 0 0-7.29zm0 5.466a1.822 1.822 0 1 1 0-3.643 1.822 1.822 0 0 1 0 3.643z"/></g></g></svg>